<svg width="128" height="128" viewBox="0 0 128 128" fill="none" xmlns="http://www.w3.org/2000/svg">
  <rect width="128" height="128" rx="28" fill="#0B1020"/>
  <path d="M25 28C25 22.477 29.477 18 35 18H86L103 35V100C103 105.523 98.523 110 93 110H35C29.477 110 25 105.523 25 100V28Z" fill="#111A2E" stroke="#2E4368" stroke-width="3"/>
  <path d="M86 18V33C86 35.761 88.239 38 91 38H103" stroke="#49698F" stroke-width="3"/>
  <path d="M42 47H72" stroke="#6F87A8" stroke-width="5" stroke-linecap="round"/>
  <path d="M42 64H66" stroke="#344A70" stroke-width="5" stroke-linecap="round"/>
  <path d="M42 81H58" stroke="#344A70" stroke-width="5" stroke-linecap="round"/>
  <path d="M78 51V87" stroke="#43E6D3" stroke-width="6" stroke-linecap="round"/>
  <circle cx="78" cy="88" r="12" fill="#43E6D3" fill-opacity="0.18"/>
  <circle cx="78" cy="88" r="5" fill="#43E6D3"/>
  <path d="M79 51C91.15 52.92 100.603 62.642 102.113 74.916" stroke="#43E6D3" stroke-width="3" stroke-linecap="round" stroke-dasharray="1 8"/>
  <path d="M78 30C50.938 30 29 51.938 29 79" stroke="#7C5CFF" stroke-width="3" stroke-linecap="round" opacity="0.35"/>
</svg>
